<svg width="44" height="44" viewBox="0 0 44 44" fill="none" xmlns="http://www.w3.org/2000/svg">
<path fill-rule="evenodd" clip-rule="evenodd" d="M36.0584 0.00295272C37.2025 0.00295272 38.1324 0.932777 38.1324 2.07673V5.86935H41.9255C42.3358 5.86927 42.7369 5.99084 43.078 6.21871C43.4192 6.44657 43.6851 6.77048 43.8421 7.14947C43.9991 7.52846 44.0402 7.94549 43.9601 8.34782C43.8801 8.75015 43.6825 9.1197 43.3923 9.40973L39.1093 13.6922C38.4839 14.3161 37.6371 14.6672 36.7536 14.669H32.4413L22.0858 25.0232C21.6687 25.4117 21.1171 25.6233 20.5471 25.6132C19.9771 25.6032 19.4332 25.3723 19.0301 24.9692C18.627 24.5662 18.3961 24.0224 18.3861 23.4525C18.376 22.8826 18.5876 22.331 18.9762 21.914L29.3317 11.5598V7.24796C29.3317 6.36506 29.6837 5.51737 30.3086 4.88966L34.5916 0.607192C34.7836 0.413721 35.0121 0.260394 35.2639 0.15615C35.5158 0.0519065 35.7858 -0.00116859 36.0584 1.95143e-05M4.39639 23.4686C4.39608 21.0766 4.92772 18.7146 5.95282 16.5534C6.97792 14.3922 8.47082 12.486 10.3234 10.9728C12.1761 9.45951 14.3421 8.37711 16.6646 7.80392C18.9871 7.23073 21.408 7.18109 23.7521 7.65861C24.321 7.76714 24.9097 7.64702 25.3906 7.3243C25.8715 7.00159 26.2057 6.5023 26.3208 5.93477C26.4358 5.36723 26.3224 4.77722 26.0052 4.29273C25.688 3.80824 25.1925 3.46835 24.6263 3.3468C20.3012 2.46758 15.8079 3.00505 11.8124 4.87956C7.81678 6.75406 4.53153 9.86584 2.44349 13.7537C0.355452 17.6416 -0.424251 22.0987 0.219935 26.4644C0.864121 30.8301 2.89791 34.8722 6.0199 37.9915C9.14188 41.1108 13.1859 43.1414 17.5527 43.7823C21.9194 44.4232 26.3765 43.6403 30.2633 41.5497C34.1502 39.4591 37.2599 36.172 39.1317 32.1755C41.0035 28.1791 41.5378 23.6859 40.6553 19.3621C40.539 18.7903 40.2003 18.2881 39.7136 17.9661C39.227 17.644 38.6324 17.5284 38.0605 17.6447C37.4887 17.761 36.9865 18.0997 36.6644 18.5862C36.3422 19.0728 36.2266 19.6673 36.3429 20.2391C36.5561 21.2814 36.6637 22.3579 36.6656 23.4686C36.6656 27.7472 34.9657 31.8506 31.9399 34.876C28.9141 37.9015 24.8102 39.6012 20.531 39.6012C16.2518 39.6012 12.1479 37.9015 9.12211 34.876C6.09628 31.8506 4.39639 27.7472 4.39639 23.4686ZM20.132 16.1473C20.7148 16.1162 21.2613 15.8549 21.6514 15.4208C22.0414 14.9868 22.2431 14.4157 22.2119 13.833C22.1808 13.2503 21.9195 12.7039 21.4854 12.3139C21.0513 11.9239 20.4801 11.7222 19.8974 11.7534C17.6442 11.8748 15.4738 12.6432 13.6462 13.9665C11.8186 15.2899 10.4114 17.112 9.5932 19.2146C8.77496 21.3173 8.5804 23.6112 9.03282 25.8216C9.48523 28.0319 10.5654 30.065 12.144 31.6772C13.7226 33.2893 15.7326 34.4122 17.9332 34.9113C20.1337 35.4104 22.4316 35.2645 24.5513 34.4911C26.6711 33.7176 28.5228 32.3495 29.8847 30.5506C31.2467 28.7517 32.061 26.5984 32.2301 24.3485C32.2733 23.7666 32.0835 23.1914 31.7025 22.7494C31.3215 22.3074 30.7806 22.0349 30.1986 21.9917C29.6166 21.9485 29.0413 22.1383 28.5993 22.5192C28.1572 22.9001 27.8846 23.441 27.8415 24.0229C27.7345 25.4283 27.2246 26.7732 26.373 27.8964C25.5214 29.0196 24.3641 29.8736 23.0396 30.3561C21.7152 30.8387 20.2797 30.9294 18.905 30.6173C17.5303 30.3053 16.2747 29.6037 15.2885 28.5966C14.3023 27.5895 13.6272 26.3196 13.3442 24.9388C13.0611 23.558 13.182 22.1249 13.6924 20.8111C14.2029 19.4973 15.0812 18.3583 16.2222 17.5307C17.3632 16.703 18.7186 16.2217 20.1262 16.1444" fill="black"/>
</svg>
