<svg width="28" height="28" viewBox="0 0 28 28" fill="none" xmlns="http://www.w3.org/2000/svg">
<path fill-rule="evenodd" clip-rule="evenodd" d="M14 27.5C15.7728 27.5 17.5283 27.1508 19.1662 26.4724C20.8041 25.7939 22.2923 24.7995 23.5459 23.5459C24.7995 22.2923 25.7939 20.8041 26.4724 19.1662C27.1508 17.5283 27.5 15.7728 27.5 14C27.5 12.2272 27.1508 10.4717 26.4724 8.83377C25.7939 7.19588 24.7995 5.70765 23.5459 4.45406C22.2923 3.20047 20.8041 2.20606 19.1662 1.52763C17.5283 0.849188 15.7728 0.5 14 0.5C10.4196 0.5 6.9858 1.92232 4.45406 4.45406C1.92232 6.9858 0.5 10.4196 0.5 14C0.5 17.5804 1.92232 21.0142 4.45406 23.5459C6.9858 26.0777 10.4196 27.5 14 27.5ZM13.652 19.46L21.152 10.46L18.848 8.54L12.398 16.2785L9.0605 12.9395L6.9395 15.0605L11.4395 19.5605L12.6005 20.7215L13.652 19.46Z" fill="black"/>
</svg>
