<svg width="42" height="28" viewBox="0 0 42 28" fill="none" xmlns="http://www.w3.org/2000/svg">
<path d="M21 8.5C22.4587 8.5 23.8576 9.07946 24.8891 10.1109C25.9205 11.1424 26.5 12.5413 26.5 14C26.5 15.4587 25.9205 16.8576 24.8891 17.8891C23.8576 18.9205 22.4587 19.5 21 19.5C19.5413 19.5 18.1423 18.9205 17.1109 17.8891C16.0794 16.8576 15.5 15.4587 15.5 14C15.5 12.5413 16.0794 11.1424 17.1109 10.1109C18.1423 9.07946 19.5413 8.5 21 8.5ZM21 0.25C30.1666 0.25 37.995 5.95167 41.1666 14C37.995 22.0483 30.1666 27.75 21 27.75C11.8333 27.75 4.00498 22.0483 0.833313 14C4.00498 5.95167 11.8333 0.25 21 0.25ZM4.82998 14C6.31178 17.0256 8.61271 19.5747 11.4712 21.3576C14.3297 23.1406 17.631 24.0858 21 24.0858C24.3689 24.0858 27.6703 23.1406 30.5288 21.3576C33.3873 19.5747 35.6882 17.0256 37.17 14C35.6882 10.9744 33.3873 8.4253 30.5288 6.64237C27.6703 4.85944 24.3689 3.91425 21 3.91425C17.631 3.91425 14.3297 4.85944 11.4712 6.64237C8.61271 8.4253 6.31178 10.9744 4.82998 14Z" fill="#002651"/>
</svg>
