<svg width="44" height="44" viewBox="0 0 44 44" fill="none" xmlns="http://www.w3.org/2000/svg">
<path d="M22 25.6667C26.0443 25.6667 29.3333 22.3777 29.3333 18.3333C29.3333 14.289 26.0443 11 22 11C17.9557 11 14.6667 14.289 14.6667 18.3333C14.6667 22.3777 17.9557 25.6667 22 25.6667ZM22 14.6667C24.0222 14.6667 25.6667 16.3112 25.6667 18.3333C25.6667 20.3555 24.0222 22 22 22C19.9778 22 18.3333 20.3555 18.3333 18.3333C18.3333 16.3112 19.9778 14.6667 22 14.6667Z" fill="white"/>
<path d="M20.9367 39.9923C21.2472 40.2134 21.6188 40.3322 22 40.3322C22.3811 40.3322 22.7528 40.2134 23.0633 39.9923C23.6207 39.5982 36.7198 30.14 36.6667 18.3333C36.6667 10.2465 30.0868 3.66666 22 3.66666C13.9132 3.66666 7.33332 10.2465 7.33332 18.3242C7.28016 30.14 20.3793 39.5982 20.9367 39.9923ZM22 7.33332C28.0665 7.33332 33 12.2668 33 18.3425C33.0385 26.4788 24.9553 33.7847 22 36.1808C19.0465 33.7828 10.9615 26.4752 11 18.3333C11 12.2668 15.9335 7.33332 22 7.33332Z" fill="white"/>
</svg>
