<svg width="34" height="34" viewBox="0 0 34 34" fill="none" xmlns="http://www.w3.org/2000/svg">
<path d="M7.13667 14.7817C9.77667 19.97 14.03 24.205 19.2183 26.8633L23.2517 22.83C23.7467 22.335 24.48 22.17 25.1217 22.39C27.175 23.0683 29.3933 23.435 31.6667 23.435C32.675 23.435 33.5 24.26 33.5 25.2683V31.6667C33.5 32.675 32.675 33.5 31.6667 33.5C14.4517 33.5 0.5 19.5483 0.5 2.33333C0.5 1.325 1.325 0.5 2.33333 0.5H8.75C9.75833 0.5 10.5833 1.325 10.5833 2.33333C10.5833 4.625 10.95 6.825 11.6283 8.87833C11.83 9.52 11.6833 10.235 11.17 10.7483L7.13667 14.7817Z" fill="white"/>
</svg>
